<svg width="300" height="20" viewBox="0 0 300 20" xmlns="http://www.w3.org/2000/svg">
    <style>
        #main { animation: animate1 8s linear infinite; }
        #bg { animation: animate2 12s linear infinite; opacity: 0.5; }

        @keyframes animate1 { 0% {transform: translate(0,0)}   100% {transform: translate(-300px,0)}}
        @keyframes animate2 { 0% {transform: translate(-300px,0)}   100% {transform: translate(0,0)}}
    </style>
    <g id="bg" fill="#7289da">
        <path d="M300,7.05426C291.016,4.70284,264,0,227.812,0C191.625,0,161.953,4.92178,150,7.05426C137.109,9.35401,103.828,13.9535,73.8281,13.9535C43.8281,13.9535,12.1094,9.35401,0,7.05426L0,20L300,20L300,7.05426Z"/>
        <path d="M300,7.05426C291.016,4.70284,264,0,227.812,0C191.625,0,161.953,4.92178,150,7.05426C137.109,9.35401,103.828,13.9535,73.8281,13.9535C43.8281,13.9535,12.1094,9.35401,0,7.05426L0,20L300,20L300,7.05426Z" transform="translate(300, 0)"/>
    </g>

    <g id="main" fill="#7289da">
        <path d="M300,7.05426C291.016,4.70284,264,0,227.812,0C191.625,0,161.953,4.92178,150,7.05426C137.109,9.35401,103.828,13.9535,73.8281,13.9535C43.8281,13.9535,12.1094,9.35401,0,7.05426L0,20L300,20L300,7.05426Z"/>
        <path d="M300,7.05426C291.016,4.70284,264,0,227.812,0C191.625,0,161.953,4.92178,150,7.05426C137.109,9.35401,103.828,13.9535,73.8281,13.9535C43.8281,13.9535,12.1094,9.35401,0,7.05426L0,20L300,20L300,7.05426Z" transform="translate(300, 0)"/>
    </g>
</svg>